<svg xmlns="http://www.w3.org/2000/svg" viewBox="0 0 837.41 228.08"><defs><style>.cls-1{fill:#153c66;}.cls-2{fill:#809db1;}</style></defs><title>Asset 5</title><g id="Layer_2" data-name="Layer 2"><g id="Layer_1-2" data-name="Layer 1"><polygon class="cls-1" points="399.54 140.38 430.28 210.3 463.43 140.38 480.31 140.38 439.93 228.08 422.14 228.08 383.87 140.38 399.54 140.38"/><polygon class="cls-1" points="312.91 228.08 343.65 158.16 376.8 228.08 393.68 228.08 353.3 140.38 335.51 140.38 297.24 228.08 312.91 228.08"/><polygon class="cls-2" points="332.77 227.49 345.46 205.51 358.15 227.49 332.77 227.49"/><polygon class="cls-1" points="486.17 228.08 516.91 158.16 550.07 228.08 566.94 228.08 526.56 140.38 508.78 140.38 470.5 228.08 486.17 228.08"/><polygon class="cls-2" points="506.03 227.49 518.72 205.51 531.41 227.49 506.03 227.49"/><polygon class="cls-1" points="659.43 228.08 690.18 158.16 723.33 228.08 740.2 228.08 699.82 140.38 682.04 140.38 643.76 228.08 659.43 228.08"/><polygon class="cls-2" points="679.29 227.49 691.98 205.51 704.67 227.49 679.29 227.49"/><polygon class="cls-1" points="596.68 228.08 612.96 228.08 612.92 153.84 640.73 153.84 640.78 140.38 570.03 140.38 569.98 154.74 595.75 154.74 596.68 228.08"/><path class="cls-1" d="M773.89,227.49V198.13H792l24.18,29.36h21.25L810.74,197s21.47-4.75,21.92-26.22c0,0,2-14.24-10.62-25.54-.35-.47-7.57-5.48-13.79-5.45h-49.5v15l48.67-.18a10.12,10.12,0,0,1,7.42,3.77c1.62,2.08,2.79,5.62,2.59,10.17a21.48,21.48,0,0,1-.84,5.82c-1.25,3.84-.44,3.83-7.51,8l-4.07.49-45.58.81-.68,43.85Z"/><polygon class="cls-1" points="0 228.07 30.44 185.92 79.7 185.92 49.19 228.07 0 228.07"/><polygon class="cls-1" points="58.09 228.08 91.36 180.75 34.07 180.75 61.8 141.35 116.7 141.35 186.98 45.13 208.6 85.56 108.86 228.08 58.09 228.08"/><polygon class="cls-1" points="65.66 135.85 113.24 135.85 183.52 38.66 162.84 0 65.66 135.85"/><polygon class="cls-2" points="284.85 228.08 218.47 228.08 172.54 148.21 211.58 91.12 238.86 141.35 248.39 141.35 272.39 186.19 263.21 186.19 284.85 228.08"/></g></g></svg>